<svg version="1" xmlns="http://www.w3.org/2000/svg" width="682.667" height="682.667" viewBox="0 0 512.000000 512.000000"><path d="M373 145.4c-23.6 4.2-43.4 12.7-68.7 29.5-14.4 9.5-25.4 18.2-54.4 43.1-34.4 29.5-49.1 39.9-66.8 46.9-15.8 6.2-23.5 6-27.8-.5-1.5-2.4-1.8-4.6-1.5-15.9.5-25 3.2-80 4.1-83 1-3.6-.1-6.9-2.6-8-2.9-1.2-42.6-2.6-81.3-2.8l-35.5-.2-5.4 3c-3 1.6-6.6 4.7-8.1 6.7-2.6 3.6-2.7 4.2-3.3 22.5-1.6 42.8 3 87.9 11.5 113.6 4.3 13.2 9 21.6 17.2 30.7 36.2 40.4 81.1 47.9 132.6 22 23.8-12 40.1-24.7 109.8-85.7 84.6-74.2 98.4-84.2 129-94.2 17.4-5.7 29.6-7.5 50.5-7.6h18.8l-.3-9.5-.3-9.5-5-.8c-2.7-.4-27.5-.9-55-1.2-39-.3-51.7-.1-57.5.9z"/></svg>